<svg xmlns="http://www.w3.org/2000/svg" viewBox="0 0 64 64">
  <rect width="64" height="64" fill="none"/>
  <path d="M14 10h25.5c8.4 0 14.5 5.8 14.5 14.2v17.4c0 8.5-6.2 14.4-14.7 14.4H24.4c-8.6 0-14.4-5.6-14.4-14.2V20.5C10 14.2 13.3 10 14 10z" fill="#fbf5f7"/>
  <path d="M14 10h25.5c8.4 0 14.5 5.8 14.5 14.2v17.4c0 8.5-6.2 14.4-14.7 14.4H24.4c-8.6 0-14.4-5.6-14.4-14.2V20.5C10 14.2 13.3 10 14 10z" fill="none" stroke="#dbbec8" stroke-width="2"/>
  <circle cx="47" cy="17" r="4.6" fill="#f1d5de"/>
  <circle cx="49.5" cy="14.2" r="1.2" fill="#fff"/>
  <path d="M19 44V20h4.9l8.1 12.4L40.1 20H45v24h-4.6V28.9L33 39.9h-2L23.6 28.8V44z" fill="#8f5f71"/>
  <path d="M17.8 50.5c1.9 1.9 4 2.8 6.5 2.8" fill="none" stroke="#d79aac" stroke-linecap="round" stroke-width="2.2"/>
  <path d="M17.8 50.5c-0.8-2 0.1-4.1 2.1-4.8" fill="none" stroke="#d79aac" stroke-linecap="round" stroke-width="2.2"/>
</svg>
