<svg width="256" height="355" viewBox="0 0 256 355" fill="none" xmlns="http://www.w3.org/2000/svg">
<path d="M39.5654 137.841C37.0811 87.3923 77.3144 45.1292 127.824 45.1292C178.466 45.1292 218.748 87.6039 216.066 138.174L211.975 215.316C210.838 236.751 203.646 257.425 191.234 274.938L189.806 276.953C175.501 297.135 152.299 309.129 127.561 309.129C102.755 309.129 79.4981 297.069 65.2053 276.795L63.8876 274.926C51.5479 257.423 44.437 236.772 43.3837 215.382L39.5654 137.841Z" fill="white" stroke="#2B2B2B" stroke-width="6"/>
<path d="M119 288.629C123.026 281.963 131.974 281.963 136 288.629" stroke="#2B2B2B" stroke-width="3"/>
<path d="M148.5 256.504C139.5 265.504 119.5 265.504 110.5 256.504" stroke="#2B2B2B" stroke-width="6"/>
<rect x="85" y="171.379" width="9" height="22" rx="4.5" fill="#2B2B2B"/>
<rect x="162" y="170.379" width="9" height="22" rx="4.5" fill="#2B2B2B"/>
<path d="M72 167.379C74.3442 165.035 77.4347 163.301 80.8827 162.178M110 167.379C105.086 162.465 96.8919 160.234 89 160.686M68 161.379L74.5 164.879M70 158.379L78 163.379M74 156.379L80.8827 162.178M80.8827 162.178C81.7352 161.901 82.6096 161.66 83.5 161.457M78.8827 154.379L83.5 161.457M83.5 161.457C84.3213 161.27 85.1561 161.115 86 160.991M84 154.379L86 160.991M86 160.991C86.9901 160.846 87.9926 160.744 89 160.686M89 156.379V160.686" stroke="#2B2B2B" stroke-width="3"/>
<path d="M183 167.379C180.656 165.035 177.565 163.301 174.117 162.178M145 167.379C149.914 162.465 158.108 160.234 166 160.686M187 161.379L180.5 164.879M185 158.379L177 163.379M181 156.379L174.117 162.178M174.117 162.178C173.265 161.901 172.39 161.66 171.5 161.457M176.117 154.379L171.5 161.457M171.5 161.457C170.679 161.27 169.844 161.115 169 160.991M171 154.379L169 160.991M169 160.991C168.01 160.846 167.007 160.744 166 160.686M166 156.379V160.686" stroke="#2B2B2B" stroke-width="3"/>
<path d="M140 191.129V226.59C140 230.451 138.293 234.535 134.464 235.023C128.617 235.767 121.63 232.523 117 228.075" stroke="#2B2B2B" stroke-width="3"/>
<path fill-rule="evenodd" clip-rule="evenodd" d="M22 143.829C24.8102 87.7944 71.1328 43.2258 127.865 43.2258C184.537 43.2259 230.821 87.6999 233.721 143.65C233.541 143.996 233.207 144.251 232.801 144.32C209.99 148.197 189.92 150.896 170.999 152.486C168.312 152.712 165.948 150.741 165.658 148.06L158.865 85.2258L158.865 148.656C158.865 151.301 156.804 153.491 154.163 153.624C112.949 155.709 75.1011 152.324 22.6485 144.26C22.3724 144.217 22.1386 144.054 22 143.829Z" fill="#2B2B2B"/>
<path d="M22 144.226H38L46 246.226H22V144.226Z" fill="#2B2B2B"/>
<path d="M217 144.226H234V246.226H209L217 144.226Z" fill="#2B2B2B"/>
<path d="M230.75 157.273C235.989 155.883 241.064 159.995 240.792 165.408L240.02 180.72C239.429 192.447 231.327 202.447 219.978 205.458L213.657 207.135L215.972 161.194L230.75 157.273Z" fill="#BCBCBC" stroke="#2B2B2B" stroke-width="6"/>
<path d="M25.6052 157.226C20.388 155.757 15.251 159.792 15.4421 165.209L15.9827 180.531C16.3967 192.265 24.3468 202.387 35.6488 205.569L41.9442 207.341L40.3222 161.37L25.6052 157.226Z" fill="#BCBCBC" stroke="#2B2B2B" stroke-width="6"/>
<path d="M234.629 168.472L233.474 168.623C227.723 169.372 223.33 174.126 223.039 179.918L222.259 195.384" stroke="#2B2B2B" stroke-width="3"/>
<path d="M223.127 178.16C227.996 177.787 230.336 178.386 234.026 180.457" stroke="#2B2B2B" stroke-width="3"/>
<path d="M21.5574 168.366L22.7106 168.534C28.4496 169.37 32.7697 174.19 32.9742 179.986L33.5202 195.461" stroke="#2B2B2B" stroke-width="3"/>
<path d="M32.912 178.226C28.0492 177.78 25.7006 178.343 21.9804 180.359" stroke="#2B2B2B" stroke-width="3"/>
</svg>
