<svg xmlns="http://www.w3.org/2000/svg" viewBox="0 0 64 64">
  <rect width="64" height="64" rx="16" fill="#f6eef1"/>
  <rect x="6" y="6" width="52" height="52" rx="14" fill="none" stroke="#d8c1ca" stroke-width="2"/>
  <path d="M17 44V20h5.2l9.3 14.2L40.8 20H46v24h-4.8V28.6l-8.6 12.8h-2L22 28.6V44z" fill="#8f5f71"/>
  <path d="M49 24.7c-1.2-1.2-3.2-2.1-5.6-2.1-3.6 0-6 1.8-6 4.6 0 2.5 1.8 3.8 5.1 4.3l2.2.3c2 .3 2.9.9 2.9 1.9 0 1.3-1.5 2.2-3.9 2.2-2.5 0-4.5-.8-6.1-2.3l-2.5 3.2c1.9 1.9 5 3 8.6 3 5 0 8.4-2.4 8.4-6 0-3-2-4.8-5.8-5.3l-2.2-.3c-1.6-.2-2.4-.7-2.4-1.6 0-1.2 1.2-2 3.3-2 2.1 0 3.9.7 4.9 1.5z" fill="#c897a9"/>
</svg>
